<svg width="62" height="14" fill="none" xmlns="http://www.w3.org/2000/svg"><path d="M.9 7.2h10.5v1.3H.9V7.2Zm28 .2h5v1.3h-5V7.4Zm-8.2-2.6-1-1.9.2 1.9V13h-1.5V.2h.8L25 8.5l1 1.8-.2-1.7V.4h1.4v12.8h-.8l-5.6-8.4Zm7.9-1.6c0-.5 0-1 .2-1.3.1-.4.3-.7.6-1 .2-.2.5-.4.9-.5.3-.2.7-.2 1-.2l1.2.1.9.6c.2.2.4.5.5 1 .2.3.3.8.3 1.3 0 .6-.1 1-.3 1.5l-.5 1-1 .4c-.3.2-.6.2-1 .2s-.8 0-1.1-.2c-.4 0-.7-.2-1-.5-.2-.2-.4-.5-.5-1l-.2-1.4Zm1.3 0c0 .8.1 1.3.4 1.6.3.3.6.5 1 .5l.7-.1.4-.4c.2-.1.3-.3.3-.6l.1-1v-1l-.4-.5a1 1 0 0 0-.4-.4h-.6c-.5 0-.8 0-1.1.4-.3.2-.4.8-.4 1.5Zm9.6 8.8 1.2-.2.9-.5a2.6 2.6 0 0 0 .8-2c0-.8-.3-1.4-.8-1.8-.5-.4-1.2-.6-2-.6h-1.4v-.6l2.6-4 .8-.7-1.1.1h-3.6V.4h6.4v.5l-2.8 4.3-.7.5h.7c.4 0 .9 0 1.3.2l1 .7.8 1.1.2 1.5c0 .6-.1 1.2-.3 1.7a3.7 3.7 0 0 1-2.3 2c-.6.2-1.1.3-1.7.3a7.7 7.7 0 0 1-2.6-.4l.4-1.3 1 .3 1.2.2Zm11.1-4.8h10.5v1.3H50.6V7.2Z" fill="#000"/></svg>